<mxfile host="Electron" modified="2024-06-21T12:21:47.139Z" agent="Mozilla/5.0 (Windows NT 10.0; Win64; x64) AppleWebKit/537.36 (KHTML, like Gecko) draw.io/24.5.3 Chrome/124.0.6367.207 Electron/30.0.6 Safari/537.36" etag="0-2pm6bFc67Va538Jt0B" version="24.5.3" type="device">
  <diagram name="Seite-1" id="T95T-MAoptsZgxDkhdr3">
    <mxGraphModel dx="1554" dy="479" grid="1" gridSize="10" guides="1" tooltips="1" connect="1" arrows="1" fold="1" page="1" pageScale="1" pageWidth="827" pageHeight="1169" math="0" shadow="0">
      <root>
        <mxCell id="0" />
        <mxCell id="1" parent="0" />
        <mxCell id="CbMV93YRRMkIrPk-7vgo-9" value="&lt;font style=&quot;font-size: 24px;&quot;&gt;Fehler&lt;/font&gt;" style="rounded=1;whiteSpace=wrap;html=1;fillColor=#f8cecc;strokeColor=#b85450;glass=0;strokeWidth=1;shadow=0;" parent="1" vertex="1">
          <mxGeometry x="630" y="410" width="190" height="60" as="geometry" />
        </mxCell>
        <mxCell id="CbMV93YRRMkIrPk-7vgo-10" value="" style="endArrow=classic;html=1;rounded=0;entryX=0;entryY=0.5;entryDx=0;entryDy=0;spacing=2;strokeWidth=1;shape=flexArrow;startSize=6;endSize=6;fillColor=#f8cecc;strokeColor=#b85450;" parent="1" target="CbMV93YRRMkIrPk-7vgo-9" edge="1">
          <mxGeometry width="50" height="50" relative="1" as="geometry">
            <mxPoint x="300" y="440" as="sourcePoint" />
            <mxPoint x="340" y="430" as="targetPoint" />
          </mxGeometry>
        </mxCell>
        <mxCell id="CbMV93YRRMkIrPk-7vgo-11" value="" style="endArrow=classic;html=1;rounded=0;spacing=2;strokeWidth=1;shape=flexArrow;startSize=6;endSize=6;fillColor=#ffe6cc;strokeColor=#d79b00;" parent="1" edge="1">
          <mxGeometry width="50" height="50" relative="1" as="geometry">
            <mxPoint x="440" y="220" as="sourcePoint" />
            <mxPoint x="590" y="440" as="targetPoint" />
          </mxGeometry>
        </mxCell>
        <mxCell id="CbMV93YRRMkIrPk-7vgo-12" value="&lt;font style=&quot;font-size: 20px;&quot;&gt;Maschine&lt;/font&gt;" style="rounded=1;whiteSpace=wrap;html=1;fillColor=#ffe6cc;strokeColor=#d79b00;" parent="1" vertex="1">
          <mxGeometry x="330" y="210" width="150" height="30" as="geometry" />
        </mxCell>
        <mxCell id="CbMV93YRRMkIrPk-7vgo-25" value="" style="endArrow=classic;html=1;rounded=0;spacing=2;strokeWidth=1;shape=flexArrow;startSize=6;endSize=6;fillColor=#ffe6cc;strokeColor=#d79b00;" parent="1" edge="1">
          <mxGeometry width="50" height="50" relative="1" as="geometry">
            <mxPoint x="440" y="655" as="sourcePoint" />
            <mxPoint x="590" y="440" as="targetPoint" />
          </mxGeometry>
        </mxCell>
        <mxCell id="CbMV93YRRMkIrPk-7vgo-20" value="&lt;font style=&quot;font-size: 20px;&quot;&gt;Mensch&lt;/font&gt;" style="rounded=1;whiteSpace=wrap;html=1;fillColor=#ffe6cc;strokeColor=#d79b00;" parent="1" vertex="1">
          <mxGeometry x="330" y="640" width="150" height="30" as="geometry" />
        </mxCell>
        <mxCell id="CbMV93YRRMkIrPk-7vgo-29" value="" style="endArrow=classic;html=1;rounded=0;spacing=2;strokeWidth=1;shape=flexArrow;startSize=6;endSize=6;fillColor=#ffe6cc;strokeColor=#d79b00;" parent="1" edge="1">
          <mxGeometry width="50" height="50" relative="1" as="geometry">
            <mxPoint x="160" y="655" as="sourcePoint" />
            <mxPoint x="310" y="440" as="targetPoint" />
          </mxGeometry>
        </mxCell>
        <mxCell id="CbMV93YRRMkIrPk-7vgo-30" value="" style="endArrow=classic;html=1;rounded=0;spacing=2;strokeWidth=1;shape=flexArrow;startSize=6;endSize=6;fillColor=#ffe6cc;strokeColor=#d79b00;" parent="1" edge="1">
          <mxGeometry width="50" height="50" relative="1" as="geometry">
            <mxPoint x="160" y="220" as="sourcePoint" />
            <mxPoint x="310" y="440" as="targetPoint" />
          </mxGeometry>
        </mxCell>
        <mxCell id="CbMV93YRRMkIrPk-7vgo-14" value="&lt;font style=&quot;font-size: 20px;&quot;&gt;Material&lt;/font&gt;" style="rounded=1;whiteSpace=wrap;html=1;fillColor=#ffe6cc;strokeColor=#d79b00;" parent="1" vertex="1">
          <mxGeometry x="50" y="210" width="150" height="30" as="geometry" />
        </mxCell>
        <mxCell id="CbMV93YRRMkIrPk-7vgo-15" value="&lt;font style=&quot;font-size: 20px;&quot;&gt;Methode&lt;/font&gt;" style="rounded=1;whiteSpace=wrap;html=1;fillColor=#ffe6cc;strokeColor=#d79b00;" parent="1" vertex="1">
          <mxGeometry x="50" y="640" width="150" height="30" as="geometry" />
        </mxCell>
        <mxCell id="CbMV93YRRMkIrPk-7vgo-32" value="Hauptursache" style="text;html=1;align=left;verticalAlign=middle;whiteSpace=wrap;rounded=0;fontSize=16;" parent="1" vertex="1">
          <mxGeometry y="250" width="150" height="30" as="geometry" />
        </mxCell>
        <mxCell id="CbMV93YRRMkIrPk-7vgo-33" value="" style="endArrow=classic;html=1;rounded=0;fillColor=#fff2cc;strokeColor=#d6b656;shape=flexArrow;width=4.722222222222222;endSize=3.5916666666666663;startSize=3;endWidth=10.07716049382716;" parent="1" edge="1">
          <mxGeometry width="50" height="50" relative="1" as="geometry">
            <mxPoint x="333" y="360" as="sourcePoint" />
            <mxPoint x="533" y="360" as="targetPoint" />
          </mxGeometry>
        </mxCell>
        <mxCell id="CbMV93YRRMkIrPk-7vgo-34" value="" style="endArrow=classic;html=1;rounded=0;shape=flexArrow;width=4;endSize=2.2359999999999998;startSize=3;endWidth=5.58109833971903;fillColor=#FFFAED;strokeColor=#d6b656;" parent="1" edge="1">
          <mxGeometry width="50" height="50" relative="1" as="geometry">
            <mxPoint x="315" y="330" as="sourcePoint" />
            <mxPoint x="335" y="360" as="targetPoint" />
          </mxGeometry>
        </mxCell>
        <mxCell id="CbMV93YRRMkIrPk-7vgo-35" value="" style="endArrow=classic;html=1;rounded=0;fillColor=#fff2cc;strokeColor=#d6b656;shape=flexArrow;width=4.722222222222222;endSize=3.5916666666666663;startSize=3;endWidth=10.07716049382716;" parent="1" edge="1">
          <mxGeometry width="50" height="50" relative="1" as="geometry">
            <mxPoint x="279" y="280" as="sourcePoint" />
            <mxPoint x="479" y="280" as="targetPoint" />
          </mxGeometry>
        </mxCell>
        <mxCell id="CbMV93YRRMkIrPk-7vgo-36" value="" style="endArrow=classic;html=1;rounded=0;fillColor=#fff2cc;strokeColor=#d6b656;shape=flexArrow;width=4.722222222222222;endSize=3.5916666666666663;startSize=3;endWidth=10.07716049382716;" parent="1" edge="1">
          <mxGeometry width="50" height="50" relative="1" as="geometry">
            <mxPoint x="82" y="400" as="sourcePoint" />
            <mxPoint x="282" y="400" as="targetPoint" />
          </mxGeometry>
        </mxCell>
        <mxCell id="CbMV93YRRMkIrPk-7vgo-38" value="" style="endArrow=classic;html=1;rounded=0;fillColor=#fff2cc;strokeColor=#d6b656;shape=flexArrow;width=4.722222222222222;endSize=3.5916666666666663;startSize=3;endWidth=10.07716049382716;" parent="1" edge="1">
          <mxGeometry width="50" height="50" relative="1" as="geometry">
            <mxPoint x="27" y="320" as="sourcePoint" />
            <mxPoint x="227" y="320" as="targetPoint" />
          </mxGeometry>
        </mxCell>
        <mxCell id="CbMV93YRRMkIrPk-7vgo-39" value="" style="endArrow=classic;html=1;rounded=0;fillColor=#fff2cc;strokeColor=#d6b656;shape=flexArrow;width=4.722222222222222;endSize=3.5916666666666663;startSize=3;endWidth=10.07716049382716;" parent="1" edge="1">
          <mxGeometry width="50" height="50" relative="1" as="geometry">
            <mxPoint y="280" as="sourcePoint" />
            <mxPoint x="200" y="280" as="targetPoint" />
          </mxGeometry>
        </mxCell>
        <mxCell id="CbMV93YRRMkIrPk-7vgo-40" value="" style="endArrow=classic;html=1;rounded=0;fillColor=#fff2cc;strokeColor=#d6b656;shape=flexArrow;width=4.722222222222222;endSize=3.5916666666666663;startSize=3;endWidth=10.07716049382716;" parent="1" edge="1">
          <mxGeometry width="50" height="50" relative="1" as="geometry">
            <mxPoint x="278" y="600" as="sourcePoint" />
            <mxPoint x="478" y="600" as="targetPoint" />
          </mxGeometry>
        </mxCell>
        <mxCell id="CbMV93YRRMkIrPk-7vgo-41" value="" style="endArrow=classic;html=1;rounded=0;fillColor=#fff2cc;strokeColor=#d6b656;shape=flexArrow;width=4.722222222222222;endSize=3.5916666666666663;startSize=3;endWidth=10.07716049382716;" parent="1" edge="1">
          <mxGeometry width="50" height="50" relative="1" as="geometry">
            <mxPoint x="305" y="560" as="sourcePoint" />
            <mxPoint x="505" y="560" as="targetPoint" />
          </mxGeometry>
        </mxCell>
        <mxCell id="CbMV93YRRMkIrPk-7vgo-43" value="" style="endArrow=classic;html=1;rounded=0;fillColor=#fff2cc;strokeColor=#d6b656;shape=flexArrow;width=4.722222222222222;endSize=3.5916666666666663;startSize=3;endWidth=10.07716049382716;" parent="1" edge="1">
          <mxGeometry width="50" height="50" relative="1" as="geometry">
            <mxPoint x="361" y="480" as="sourcePoint" />
            <mxPoint x="561" y="480" as="targetPoint" />
          </mxGeometry>
        </mxCell>
        <mxCell id="CbMV93YRRMkIrPk-7vgo-60" value="" style="endArrow=classic;html=1;rounded=0;fillColor=#fff2cc;strokeColor=#d6b656;shape=flexArrow;width=4.722222222222222;endSize=3.5916666666666663;startSize=3;endWidth=10.07716049382716;" parent="1" edge="1">
          <mxGeometry width="50" height="50" relative="1" as="geometry">
            <mxPoint y="600" as="sourcePoint" />
            <mxPoint x="200" y="600" as="targetPoint" />
          </mxGeometry>
        </mxCell>
        <mxCell id="CbMV93YRRMkIrPk-7vgo-61" value="" style="endArrow=classic;html=1;rounded=0;fillColor=#fff2cc;strokeColor=#d6b656;shape=flexArrow;width=4.722222222222222;endSize=3.5916666666666663;startSize=3;endWidth=10.07716049382716;" parent="1" edge="1">
          <mxGeometry width="50" height="50" relative="1" as="geometry">
            <mxPoint x="27" y="560" as="sourcePoint" />
            <mxPoint x="227" y="560" as="targetPoint" />
          </mxGeometry>
        </mxCell>
        <mxCell id="CbMV93YRRMkIrPk-7vgo-62" value="" style="endArrow=classic;html=1;rounded=0;fillColor=#fff2cc;strokeColor=#d6b656;shape=flexArrow;width=4.722222222222222;endSize=3.5916666666666663;startSize=3;endWidth=10.07716049382716;" parent="1" edge="1">
          <mxGeometry width="50" height="50" relative="1" as="geometry">
            <mxPoint x="55" y="520" as="sourcePoint" />
            <mxPoint x="255" y="520" as="targetPoint" />
          </mxGeometry>
        </mxCell>
        <mxCell id="CbMV93YRRMkIrPk-7vgo-64" value="Hauptursache" style="text;html=1;align=left;verticalAlign=middle;whiteSpace=wrap;rounded=0;fontSize=16;" parent="1" vertex="1">
          <mxGeometry x="28" y="290" width="150" height="30" as="geometry" />
        </mxCell>
        <mxCell id="CbMV93YRRMkIrPk-7vgo-66" value="Hauptursache" style="text;html=1;align=left;verticalAlign=middle;whiteSpace=wrap;rounded=0;fontSize=16;" parent="1" vertex="1">
          <mxGeometry x="280" y="250" width="150" height="30" as="geometry" />
        </mxCell>
        <mxCell id="CbMV93YRRMkIrPk-7vgo-69" value="Hauptursache" style="text;html=1;align=left;verticalAlign=middle;whiteSpace=wrap;rounded=0;fontSize=16;" parent="1" vertex="1">
          <mxGeometry x="279" y="570" width="181" height="30" as="geometry" />
        </mxCell>
        <mxCell id="CbMV93YRRMkIrPk-7vgo-71" value="Hauptursache" style="text;html=1;align=left;verticalAlign=middle;whiteSpace=wrap;rounded=0;fontSize=16;" parent="1" vertex="1">
          <mxGeometry y="570" width="181" height="30" as="geometry" />
        </mxCell>
        <mxCell id="H4oSlPo-UG1qOk1EIgyw-1" value="" style="shape=curlyBracket;whiteSpace=wrap;html=1;rounded=1;flipH=1;labelPosition=right;verticalLabelPosition=middle;align=left;verticalAlign=middle;rotation=90;" parent="1" vertex="1">
          <mxGeometry x="286" y="435" width="20" height="590" as="geometry" />
        </mxCell>
        <mxCell id="H4oSlPo-UG1qOk1EIgyw-2" value="" style="shape=curlyBracket;whiteSpace=wrap;html=1;rounded=1;flipH=1;labelPosition=right;verticalLabelPosition=middle;align=left;verticalAlign=middle;rotation=90;" parent="1" vertex="1">
          <mxGeometry x="705" y="625" width="20" height="210" as="geometry" />
        </mxCell>
        <mxCell id="H4oSlPo-UG1qOk1EIgyw-3" value="Ursache" style="text;html=1;align=center;verticalAlign=middle;whiteSpace=wrap;rounded=0;fontSize=24;" parent="1" vertex="1">
          <mxGeometry x="265" y="750" width="60" height="30" as="geometry" />
        </mxCell>
        <mxCell id="H4oSlPo-UG1qOk1EIgyw-4" value="Wirkung" style="text;html=1;align=center;verticalAlign=middle;whiteSpace=wrap;rounded=0;fontSize=24;" parent="1" vertex="1">
          <mxGeometry x="685" y="750" width="60" height="30" as="geometry" />
        </mxCell>
        <mxCell id="H4oSlPo-UG1qOk1EIgyw-5" value="Hauptursache" style="text;html=1;align=left;verticalAlign=middle;whiteSpace=wrap;rounded=0;fontSize=16;" parent="1" vertex="1">
          <mxGeometry x="336" y="330" width="150" height="30" as="geometry" />
        </mxCell>
        <mxCell id="H4oSlPo-UG1qOk1EIgyw-6" value="Nebenursache" style="text;html=1;align=center;verticalAlign=middle;whiteSpace=wrap;rounded=0;fontSize=12;" parent="1" vertex="1">
          <mxGeometry x="240" y="307" width="150" height="30" as="geometry" />
        </mxCell>
        <mxCell id="H4oSlPo-UG1qOk1EIgyw-9" value="" style="endArrow=none;dashed=1;html=1;dashPattern=1 3;strokeWidth=2;rounded=0;" parent="1" edge="1">
          <mxGeometry width="50" height="50" relative="1" as="geometry">
            <mxPoint x="600" y="730" as="sourcePoint" />
            <mxPoint x="600" y="160" as="targetPoint" />
          </mxGeometry>
        </mxCell>
        <mxCell id="H4oSlPo-UG1qOk1EIgyw-10" value="" style="endArrow=classic;html=1;rounded=0;shape=flexArrow;width=4;endSize=2.2359999999999998;startSize=3;endWidth=5.58109833971903;fillColor=#FFFAED;strokeColor=#d6b656;" parent="1" edge="1">
          <mxGeometry width="50" height="50" relative="1" as="geometry">
            <mxPoint x="64" y="370" as="sourcePoint" />
            <mxPoint x="84" y="400" as="targetPoint" />
          </mxGeometry>
        </mxCell>
        <mxCell id="H4oSlPo-UG1qOk1EIgyw-11" value="Hauptursache" style="text;html=1;align=left;verticalAlign=middle;whiteSpace=wrap;rounded=0;fontSize=16;" parent="1" vertex="1">
          <mxGeometry x="85" y="370" width="150" height="30" as="geometry" />
        </mxCell>
        <mxCell id="H4oSlPo-UG1qOk1EIgyw-12" value="Nebenursache" style="text;html=1;align=center;verticalAlign=middle;whiteSpace=wrap;rounded=0;fontSize=12;" parent="1" vertex="1">
          <mxGeometry x="-11" y="347" width="150" height="30" as="geometry" />
        </mxCell>
        <mxCell id="H4oSlPo-UG1qOk1EIgyw-13" value="Hauptursache" style="text;html=1;align=left;verticalAlign=middle;whiteSpace=wrap;rounded=0;fontSize=16;" parent="1" vertex="1">
          <mxGeometry x="28" y="530" width="181" height="30" as="geometry" />
        </mxCell>
        <mxCell id="H4oSlPo-UG1qOk1EIgyw-14" value="Hauptursache" style="text;html=1;align=left;verticalAlign=middle;whiteSpace=wrap;rounded=0;fontSize=16;" parent="1" vertex="1">
          <mxGeometry x="56" y="490" width="181" height="30" as="geometry" />
        </mxCell>
        <mxCell id="H4oSlPo-UG1qOk1EIgyw-15" value="Hauptursache" style="text;html=1;align=left;verticalAlign=middle;whiteSpace=wrap;rounded=0;fontSize=16;" parent="1" vertex="1">
          <mxGeometry x="305" y="530" width="181" height="30" as="geometry" />
        </mxCell>
        <mxCell id="H4oSlPo-UG1qOk1EIgyw-16" value="Hauptursache" style="text;html=1;align=left;verticalAlign=middle;whiteSpace=wrap;rounded=0;fontSize=16;" parent="1" vertex="1">
          <mxGeometry x="361" y="450" width="181" height="30" as="geometry" />
        </mxCell>
        <mxCell id="H4oSlPo-UG1qOk1EIgyw-17" value="Nebenursache" style="text;html=1;align=center;verticalAlign=middle;whiteSpace=wrap;rounded=0;fontSize=12;" parent="1" vertex="1">
          <mxGeometry x="270" y="503" width="150" height="30" as="geometry" />
        </mxCell>
        <mxCell id="H4oSlPo-UG1qOk1EIgyw-19" value="" style="endArrow=classic;html=1;rounded=0;shape=flexArrow;width=4;endSize=2.2359999999999998;startSize=3;endWidth=5.58109833971903;fillColor=#FFFAED;strokeColor=#d6b656;exitX=0.102;exitY=0.006;exitDx=0;exitDy=0;exitPerimeter=0;" parent="1" edge="1">
          <mxGeometry width="50" height="50" relative="1" as="geometry">
            <mxPoint x="343.29999999999995" y="510.18000000000006" as="sourcePoint" />
            <mxPoint x="363" y="480" as="targetPoint" />
          </mxGeometry>
        </mxCell>
        <mxCell id="ksHuPcCpBLAD1zemUwso-1" value="Hauptwirkungslinie" style="text;html=1;align=left;verticalAlign=middle;whiteSpace=wrap;rounded=0;fontSize=16;" vertex="1" parent="1">
          <mxGeometry x="376.5" y="405" width="150" height="30" as="geometry" />
        </mxCell>
      </root>
    </mxGraphModel>
  </diagram>
</mxfile>
